<?xml version="1.0" standalone="no"?>
<!DOCTYPE svg PUBLIC "-//W3C//DTD SVG 20010904//EN"
 "http://www.w3.org/TR/2001/REC-SVG-20010904/DTD/svg10.dtd">
<svg version="1.0" xmlns="http://www.w3.org/2000/svg"
 width="1024.000000pt" height="1024.000000pt" viewBox="0 0 1024.000000 1024.000000"
 preserveAspectRatio="xMidYMid meet">

<g transform="translate(0.000000,1024.000000) scale(0.100000,-0.100000)"
fill="#000000" stroke="none">
<path d="M4880 8025 c-332 -49 -483 -96 -770 -240 -255 -128 -505 -311 -725
-530 -281 -281 -506 -651 -644 -1060 -96 -288 -119 -417 -128 -737 -12 -419
29 -677 164 -1027 41 -107 77 -209 80 -227 l5 -33 72 56 c39 31 87 71 106 89
21 20 51 35 75 39 66 12 182 91 162 112 -4 3 -82 9 -174 12 l-167 6 -33 85
c-41 109 -42 143 -6 159 31 14 190 27 495 39 207 9 238 15 238 48 0 22 -30 31
-120 39 -47 3 -121 10 -165 16 -44 5 -154 13 -245 19 -208 13 -258 19 -274 36
-12 11 -36 135 -36 184 0 10 14 28 30 40 29 21 46 22 358 31 180 4 385 15 457
24 71 8 175 15 231 15 104 0 198 21 191 44 -2 6 -19 19 -38 28 -29 16 -67 18
-279 19 -135 0 -364 4 -510 8 -243 6 -269 9 -314 29 -26 12 -61 37 -77 54 -16
18 -29 29 -29 23 -1 -5 -5 -1 -10 11 -4 11 -5 36 0 55 4 19 8 29 9 22 1 -17
74 6 129 41 66 41 138 54 392 67 247 12 300 22 300 57 0 36 -26 44 -177 53
-81 5 -168 11 -193 14 -25 3 -119 10 -210 15 -91 5 -180 12 -199 16 l-34 7 7
58 c8 85 36 187 52 193 19 7 381 24 784 37 395 12 442 16 473 48 20 21 21 23
5 35 -21 15 -340 33 -743 42 -154 3 -297 10 -318 15 -20 6 -53 24 -73 41 -32
28 -35 35 -29 67 11 59 43 111 78 126 65 27 209 37 828 61 175 6 212 15 217
51 6 38 -45 42 -476 42 -410 0 -503 5 -501 25 1 25 107 182 130 193 14 7 63
13 114 13 132 0 254 16 276 36 26 23 24 62 -6 106 -39 57 -34 82 23 109 44 22
62 24 309 29 237 5 263 7 282 24 25 23 28 61 5 70 -9 3 -79 6 -157 6 -222 0
-456 12 -472 24 -12 9 -2 21 53 67 171 142 321 242 514 343 157 83 313 143
562 216 168 50 209 66 268 105 38 25 68 51 65 58 -5 17 -103 18 -207 2z"/>
<path d="M5463 8024 c-3 -9 -2 -19 3 -23 100 -70 139 -87 296 -133 462 -134
751 -277 1075 -534 54 -43 100 -79 102 -81 14 -10 -31 -16 -240 -34 -129 -10
-244 -24 -256 -29 -28 -12 -31 -55 -5 -65 9 -4 116 -11 237 -16 121 -5 252
-13 290 -18 39 -6 91 -10 117 -11 45 0 48 -2 63 -37 19 -46 15 -59 -25 -68
-35 -8 -63 -44 -58 -76 6 -44 50 -63 154 -67 l95 -4 65 -100 c36 -55 62 -103
59 -106 -9 -9 -140 -15 -178 -8 -26 5 -36 13 -45 39 -15 41 -115 158 -167 195
-80 58 -264 115 -415 128 -68 5 -402 -20 -422 -32 -16 -10 -216 -6 -273 5
-101 20 -209 60 -223 81 -10 17 -7 26 24 67 19 27 43 54 52 62 15 12 15 13 -3
6 -24 -9 -14 -6 -186 -45 -75 -16 -141 -30 -147 -30 -6 0 7 27 29 59 22 33 45
76 52 97 l13 37 29 -37 c15 -20 37 -42 47 -47 18 -10 19 -9 4 19 -9 17 -20 52
-26 78 -5 27 -12 59 -15 70 l-5 22 57 -24 c32 -12 59 -21 61 -19 2 1 -9 15
-23 29 -24 24 -75 119 -75 141 0 6 26 9 65 7 65 -4 89 10 40 22 -24 6 -175
140 -175 155 0 4 22 13 50 20 55 14 75 31 36 31 -13 0 -75 16 -136 35 -61 19
-130 35 -152 35 l-41 0 24 18 c13 10 36 23 52 30 49 21 28 30 -42 17 -76 -15
-136 -42 -165 -74 -11 -12 -23 -21 -27 -21 -9 0 3 47 21 79 6 12 10 27 8 33
-6 18 -57 -34 -86 -86 -20 -37 -35 -52 -57 -58 -30 -7 -104 -73 -94 -83 3 -3
23 4 45 14 21 11 40 18 42 16 9 -9 -94 -133 -130 -157 -42 -29 -39 -32 22 -29
l35 2 -6 -123 c-3 -68 -9 -131 -13 -140 -15 -34 5 -18 33 27 15 24 31 42 35
38 3 -3 6 -36 7 -72 0 -36 4 -75 9 -86 6 -17 9 -14 15 18 4 20 10 37 14 37 5
-1 71 -108 79 -130 2 -5 -21 -3 -50 5 -101 25 -203 53 -248 69 -24 8 -46 14
-47 12 -2 -1 20 -41 48 -87 56 -94 93 -163 103 -196 7 -20 -5 -28 -135 -93
-78 -38 -150 -70 -161 -70 -18 0 -18 -7 -12 -169 7 -163 6 -169 -15 -190 -14
-14 -33 -21 -61 -21 l-41 0 32 -46 c40 -58 46 -106 24 -187 -17 -62 -17 -65 3
-108 11 -24 19 -45 18 -47 -2 -1 -33 9 -70 23 -36 14 -70 25 -75 25 -4 0 -4
-26 1 -57 13 -82 4 -118 -32 -133 -17 -7 -30 -16 -30 -21 0 -4 18 -29 40 -54
36 -41 40 -52 40 -100 0 -61 -28 -206 -60 -314 -15 -52 -31 -83 -52 -103 -23
-22 -34 -46 -51 -116 l-21 -88 -50 33 c-37 26 -58 33 -85 31 -36 -3 -36 -3
-39 -56 -2 -40 3 -66 23 -109 24 -53 24 -56 8 -70 -10 -7 -108 -76 -218 -153
-110 -76 -227 -158 -260 -181 -33 -24 -161 -111 -285 -194 -124 -83 -252 -170
-285 -192 -100 -68 -391 -251 -550 -346 -326 -194 -460 -270 -665 -372 -117
-58 -222 -112 -233 -120 -19 -13 -19 -14 8 -21 37 -9 190 3 261 22 191 48 710
351 1324 770 135 92 274 185 310 207 82 50 353 240 534 374 l139 102 40 -34
c47 -40 48 -40 89 -19 30 16 31 16 25 80 l-5 64 39 0 c37 0 76 19 142 71 23
17 28 28 25 56 -2 32 0 36 47 58 27 13 51 22 53 20 2 -2 -19 -50 -46 -107 -41
-85 -66 -121 -142 -203 -50 -55 -106 -113 -123 -128 -39 -35 -197 -140 -292
-195 -116 -67 -304 -185 -337 -212 l-30 -25 12 -115 c26 -248 96 -405 264
-595 54 -62 233 -225 246 -225 3 0 5 37 6 83 1 106 39 262 100 409 62 152 163
338 141 261 -2 -10 -30 -105 -61 -211 -31 -106 -56 -197 -56 -202 0 -6 14 -10
30 -10 46 0 85 -24 122 -76 l33 -46 13 63 c14 72 135 454 140 441 1 -5 -15
-136 -37 -293 -22 -156 -42 -306 -46 -334 l-6 -50 78 -56 c105 -76 241 -140
346 -163 22 -5 27 -12 27 -36 0 -39 42 -245 85 -415 20 -77 45 -185 56 -239
20 -98 64 -249 95 -323 l16 -38 20 50 c49 124 172 602 230 897 21 106 21 106
53 112 104 20 308 129 374 199 21 24 22 29 13 74 -6 26 -14 80 -17 118 -10
112 -45 428 -50 450 -3 11 6 -4 20 -33 28 -60 87 -256 105 -347 18 -88 22 -92
54 -47 38 56 68 82 113 97 28 10 37 18 35 32 -8 40 -93 336 -111 383 -10 27
-18 50 -16 50 8 0 116 -182 140 -235 83 -187 118 -330 119 -482 1 -64 5 -99
11 -95 40 23 185 155 233 210 67 78 168 226 206 300 42 82 67 188 73 307 4 84
2 114 -9 126 -7 9 -119 87 -248 174 -308 207 -398 276 -496 377 -69 72 -92
106 -174 258 -52 96 -118 232 -147 302 -58 143 -143 396 -143 427 0 14 20 34
61 62 33 22 63 38 67 34 4 -3 -4 -34 -16 -68 -12 -34 -22 -65 -22 -69 0 -5 25
-8 55 -8 l55 0 0 -50 c0 -39 4 -52 20 -60 30 -16 65 -84 105 -203 36 -107 37
-127 9 -127 -20 0 -18 -8 12 -48 26 -33 26 -35 10 -68 -18 -39 -21 -109 -6
-149 13 -34 74 -106 103 -122 38 -21 53 -14 91 43 l38 56 -17 67 c-33 131 -36
160 -20 191 14 28 14 29 -12 42 -32 16 -44 60 -68 268 -8 74 -17 145 -20 157
-6 27 37 117 62 132 17 10 17 10 1 11 -22 0 -40 64 -36 127 3 42 1 47 -20 52
l-24 6 28 24 c23 20 29 22 38 9 16 -21 55 -40 67 -32 8 4 7 9 -1 14 -34 21 24
82 185 190 76 51 110 73 140 88 19 9 35 22 35 27 1 13 180 141 188 135 4 -3 6
-34 4 -70 -6 -110 -26 -226 -92 -515 -5 -21 -8 -41 -6 -42 5 -5 75 83 91 114
l15 28 1 -40 c0 -22 6 -58 13 -80 l12 -40 16 25 c9 14 22 54 27 90 14 82 14
372 1 465 -12 80 -62 215 -91 241 -19 17 -21 16 -67 -28 -26 -25 -76 -65 -112
-89 -36 -23 -105 -73 -155 -109 -158 -116 -274 -190 -298 -190 -13 0 -29 6
-36 13 -11 10 -13 3 -8 -37 4 -42 2 -52 -17 -67 -29 -25 -37 -23 -68 18 -43
56 -34 119 26 191 l28 32 -40 0 c-22 0 -45 6 -52 14 -8 11 -11 65 -9 187 l2
172 -64 24 c-50 18 -273 118 -287 128 -2 2 13 30 33 64 l36 62 63 -58 c133
-124 252 -169 506 -193 363 -34 417 -49 583 -158 102 -67 194 -193 237 -325
14 -45 39 -47 54 -4 24 66 -39 191 -154 307 -62 63 -93 85 -180 128 -64 31
-144 61 -205 76 -115 28 -134 31 -351 51 -177 16 -252 33 -151 34 32 1 133 13
225 27 221 35 359 35 495 0 128 -33 182 -64 278 -158 74 -73 79 -81 79 -120 0
-68 17 -117 43 -122 12 -3 84 -8 160 -12 161 -7 162 -8 205 -109 51 -119 51
-120 -5 -139 -28 -9 -115 -20 -208 -26 -174 -11 -201 -15 -227 -38 -20 -17
-24 -67 -7 -78 11 -6 114 -16 408 -37 l164 -12 24 -100 c13 -55 23 -113 21
-130 -3 -30 -3 -30 -83 -37 -260 -23 -356 -31 -498 -42 -119 -8 -160 -15 -167
-26 -14 -22 -12 -35 8 -53 13 -12 64 -18 242 -27 294 -15 319 -20 377 -75 44
-43 46 -46 40 -92 -4 -40 -12 -54 -43 -81 -21 -18 -54 -36 -73 -41 -20 -5
-129 -12 -243 -15 -114 -3 -218 -10 -232 -16 -55 -20 -54 -79 2 -102 15 -6
166 -16 344 -22 389 -14 368 -4 350 -147 -6 -51 -16 -97 -21 -102 -13 -13
-472 -53 -836 -72 -483 -25 -482 -25 -508 -45 -42 -35 -13 -42 209 -46 115 -2
391 -9 614 -15 500 -14 493 -12 460 -135 -34 -126 -31 -121 -102 -128 -35 -4
-126 -11 -203 -16 -393 -27 -357 -21 -353 -63 l3 -32 220 -8 c263 -9 291 -13
318 -48 17 -23 18 -32 8 -61 -15 -46 -70 -98 -115 -108 -20 -4 -109 -11 -196
-15 -163 -8 -199 -17 -187 -48 11 -30 52 -46 152 -62 149 -23 155 -25 155 -43
0 -23 -65 -118 -93 -136 -13 -8 -60 -16 -118 -18 -105 -5 -152 -22 -157 -55
-4 -24 5 -28 83 -38 100 -13 103 -18 47 -79 -72 -78 -275 -268 -351 -328 -261
-209 -599 -365 -993 -460 l-137 -33 -7 -45 c-4 -25 -13 -62 -20 -83 -13 -36
-13 -37 9 -32 12 3 78 14 145 25 155 26 393 95 537 155 206 86 432 219 600
353 98 78 256 233 328 322 33 41 77 93 97 115 42 45 219 320 303 470 92 164
169 374 227 616 84 357 92 839 18 1179 -28 131 -91 334 -143 461 -152 371
-407 740 -693 1001 -420 384 -902 611 -1397 658 -156 14 -194 13 -202 -6z
m-269 -1120 c26 -48 44 -89 42 -91 -3 -3 -25 23 -50 57 -30 40 -46 73 -46 91
0 16 2 29 4 29 2 0 25 -39 50 -86z m-239 -114 c8 -16 20 -42 25 -57 9 -25 7
-24 -23 11 l-34 40 -39 -31 c-21 -17 -72 -51 -111 -77 -81 -52 -81 -53 -58
-142 8 -32 13 -59 11 -61 -7 -7 -45 94 -54 145 -7 37 -6 55 2 60 10 6 258 140
263 141 1 1 9 -12 18 -29z m691 6 c11 -8 71 -40 133 -71 l114 -57 -6 -65 c-2
-36 -10 -70 -17 -76 -9 -9 -10 2 -5 51 4 34 3 62 -2 62 -5 0 -61 32 -126 70
-64 39 -122 70 -127 70 -5 0 -21 -22 -35 -50 -30 -58 -43 -67 -19 -12 9 20 21
49 27 65 13 30 32 34 63 13z m-173 -408 c-139 -163 -204 -225 -119 -113 30 40
186 205 193 205 3 0 -31 -41 -74 -92z m1174 50 c-3 -8 -6 -5 -6 6 -1 11 2 17
5 13 3 -3 4 -12 1 -19z m-18 -24 c3 -16 1 -17 -13 -5 -19 16 -21 34 -3 29 6
-3 14 -13 16 -24z m-61 -39 c13 -28 2 -34 -18 -10 -7 9 -20 13 -28 10 -12 -4
-13 -3 -2 10 18 22 35 18 48 -10z m-58 -30 c11 -13 10 -18 -6 -30 -27 -20 -34
-18 -34 8 0 38 18 48 40 22z m-72 -63 c4 -25 -13 -30 -22 -6 -9 25 -7 36 7 32
6 -3 13 -14 15 -26z m-58 -35 c0 -7 -11 -12 -24 -12 -23 0 -23 1 -9 17 16 18
33 16 33 -5z m-80 -58 c0 -24 -23 -21 -28 4 -2 10 3 17 12 17 10 0 16 -9 16
-21z m-1681 -44 c0 -5 -6 -1 -14 9 -8 11 -15 27 -15 35 1 17 29 -26 29 -44z
m1611 15 c12 -7 12 -12 3 -21 -9 -9 -16 -9 -28 1 -29 24 -9 42 25 20z m-514
-246 c-32 -29 -63 -51 -69 -47 -18 11 1 191 29 272 3 8 26 -27 52 -78 l47 -93
-59 -54z m-817 135 c33 -131 29 -188 -22 -379 -25 -91 -63 -214 -85 -275 -38
-106 -42 -111 -88 -141 -27 -17 -76 -48 -108 -68 l-59 -38 6 41 c4 32 2 41 -9
41 -28 0 -25 29 9 129 22 63 52 125 81 166 26 37 53 82 60 100 l14 34 58 -6
c47 -5 56 -4 51 8 -40 93 -58 143 -54 154 3 7 21 15 41 19 l35 7 -25 36 c-39
57 -32 91 43 221 14 24 27 42 28 40 2 -2 12 -42 24 -89z m352 -21 c-28 -41
-73 -98 -101 -128 l-51 -55 57 80 c99 138 137 186 141 181 3 -3 -18 -38 -46
-78z m-727 -174 c62 -73 73 -100 24 -59 -46 38 -104 125 -84 125 3 0 30 -30
60 -66z m1547 2 c-46 -59 -69 -82 -76 -74 -6 6 69 108 92 125 32 25 25 3 -16
-51z m-911 -181 c0 -18 -213 -249 -275 -298 l-40 -32 29 40 c27 36 275 295
283 295 2 0 3 -2 3 -5z m-955 -761 c31 -47 55 -90 53 -95 -3 -9 -102 134 -114
164 -14 39 9 12 61 -69z m1957 -358 c21 -28 7 -18 -46 34 -42 41 -97 102 -122
135 -41 54 -36 50 45 -34 50 -51 105 -112 123 -135z m-1608 138 c-84 -96 -132
-157 -160 -204 -38 -63 -132 -166 -322 -358 l-163 -164 67 94 c37 51 94 133
126 183 48 74 138 179 240 280 11 11 48 49 82 84 64 68 167 153 174 146 3 -3
-17 -30 -44 -61z m256 -23 c-140 -278 -341 -624 -301 -520 7 19 256 466 318
572 2 4 6 7 9 7 2 0 -9 -27 -26 -59z m1068 -193 c96 -164 176 -317 169 -325
-3 -2 -36 51 -75 119 -89 157 -195 358 -189 358 3 0 45 -69 95 -152z m-990
-136 c2 -7 -2 -10 -12 -6 -9 3 -16 11 -16 16 0 13 23 5 28 -10z"/>
<path d="M3525 7655 c-100 -61 -191 -141 -298 -264 -170 -196 -247 -301 -301
-408 -36 -72 -44 -103 -27 -103 12 0 97 101 145 172 56 85 177 219 386 430
102 103 186 192 188 198 7 21 -36 9 -93 -25z"/>
<path d="M7160 7461 c0 -6 33 -46 73 -89 86 -91 152 -165 226 -250 30 -34 56
-60 58 -58 2 2 -7 28 -20 57 -29 64 -135 198 -207 261 -59 51 -130 94 -130 79z"/>
<path d="M3704 5696 c-3 -8 -4 -23 -2 -33 7 -39 118 -19 118 21 0 27 -106 37
-116 12z"/>
<path d="M6482 5699 c-18 -6 -32 -15 -29 -22 6 -19 70 -27 250 -29 l172 -3 0
30 0 30 -180 2 c-99 1 -195 -3 -213 -8z"/>
<path d="M3917 5693 c-12 -12 -7 -41 8 -46 19 -8 60 26 51 41 -8 13 -48 16
-59 5z"/>
<path d="M8206 5414 c-21 -20 -20 -30 4 -54 25 -25 42 -25 65 0 17 18 17 21 1
45 -19 28 -47 32 -70 9z"/>
<path d="M3173 3862 c-34 -26 -62 -51 -62 -55 -2 -26 217 -283 357 -419 216
-210 392 -337 652 -470 165 -84 287 -130 480 -181 122 -32 296 -67 335 -67 14
0 14 4 -1 31 -8 17 -18 55 -21 84 -5 52 -6 53 -42 60 -185 32 -491 133 -666
220 -154 76 -370 215 -475 306 -141 121 -361 351 -349 364 3 2 36 9 74 15 50
7 75 17 88 32 12 14 14 25 8 31 -6 6 -63 13 -129 17 -65 4 -124 10 -130 14 -7
4 -19 20 -27 37 -9 16 -19 29 -23 28 -4 0 -35 -22 -69 -47z"/>
<path d="M7638 3808 c-73 -91 -183 -243 -200 -277 -22 -42 -23 -71 -4 -71 42
0 275 318 276 378 0 26 -39 10 -72 -30z"/>
<path d="M7326 3403 c-21 -21 -58 -66 -83 -101 -74 -103 -36 -96 82 16 53 51
66 68 63 89 -4 39 -20 38 -62 -4z"/>
<path d="M6986 3031 c-17 -32 -13 -41 19 -41 27 0 59 34 52 55 -11 27 -55 18
-71 -14z"/>
<path d="M3869 2704 c-24 -30 20 -71 64 -60 32 8 36 35 9 59 -23 21 -56 22
-73 1z"/>
<path d="M6604 2674 c-15 -23 -16 -27 -2 -41 29 -28 83 22 57 53 -17 21 -37
17 -55 -12z"/>
<path d="M4750 1809 c-240 -12 -506 -29 -605 -39 -49 -5 -162 -14 -250 -21
-88 -6 -163 -15 -167 -18 -5 -4 103 -12 240 -19 136 -7 389 -22 562 -34 373
-24 975 -29 1335 -10 511 27 907 52 964 61 l46 7 -50 7 c-27 4 -151 14 -275
22 -124 8 -261 17 -305 20 -481 33 -1120 43 -1495 24z"/>
</g>
</svg>
